<svg width="78" height="78" viewBox="0 0 78 78" fill="none" xmlns="http://www.w3.org/2000/svg">
<path d="M39 1.5C18.2888 1.5 1.5 18.2888 1.5 39C1.5 59.7112 18.2888 76.5 39 76.5C59.7112 76.5 76.5 59.7112 76.5 39C76.5 18.2888 59.7112 1.5 39 1.5Z" stroke="black" stroke-width="2.75" stroke-linecap="round" stroke-linejoin="round"/>
<path d="M10.0166 62.7975C10.0166 62.7975 18.3754 52.125 39.0004 52.125C59.6254 52.125 67.9879 62.7975 67.9879 62.7975M39.0004 39C41.984 39 44.8455 37.8147 46.9553 35.705C49.0651 33.5952 50.2504 30.7337 50.2504 27.75C50.2504 24.7663 49.0651 21.9048 46.9553 19.795C44.8455 17.6853 41.984 16.5 39.0004 16.5C36.0167 16.5 33.1552 17.6853 31.0454 19.795C28.9356 21.9048 27.7504 24.7663 27.7504 27.75C27.7504 30.7337 28.9356 33.5952 31.0454 35.705C33.1552 37.8147 36.0167 39 39.0004 39Z" stroke="black" stroke-width="2.75" stroke-linecap="round" stroke-linejoin="round"/>
</svg>
