<svg width="39" height="32" viewBox="0 0 39 32" fill="none" xmlns="http://www.w3.org/2000/svg">
<path d="M36.503 13.9169H8.57798L20.778 3.75021C21.753 2.93771 21.753 1.60437 20.778 0.791875C20.5467 0.598743 20.272 0.445519 19.9695 0.340974C19.6671 0.236429 19.3429 0.182617 19.0155 0.182617C18.6881 0.182617 18.3639 0.236429 18.0614 0.340974C17.759 0.445519 17.4843 0.598743 17.253 0.791875L0.777986 14.521C0.546227 14.7138 0.362358 14.9427 0.236904 15.1947C0.11145 15.4468 0.046875 15.7169 0.046875 15.9898C0.046875 16.2626 0.11145 16.5328 0.236904 16.7848C0.362358 17.0369 0.546227 17.2658 0.777986 17.4585L17.253 31.1877C17.4844 31.3806 17.7592 31.5336 18.0616 31.638C18.364 31.7424 18.6882 31.7961 19.0155 31.7961C19.3428 31.7961 19.6669 31.7424 19.9693 31.638C20.2718 31.5336 20.5465 31.3806 20.778 31.1877C21.0094 30.9948 21.193 30.7658 21.3183 30.5138C21.4436 30.2618 21.508 29.9917 21.508 29.719C21.508 29.4462 21.4436 29.1761 21.3183 28.9241C21.193 28.6721 21.0094 28.4431 20.778 28.2502L8.57798 18.0835H36.503C37.878 18.0835 39.003 17.146 39.003 16.0002C39.003 14.8544 37.878 13.9169 36.503 13.9169Z" fill="black"/>
</svg>
